<svg width="37" height="44" viewBox="0 0 37 44" fill="none" xmlns="http://www.w3.org/2000/svg">
<rect width="37" height="40" transform="translate(0 2)" fill="white"/>
<g filter="url(#filter0_d_69_2199)">
<path d="M5 4C5 3.44771 5.44772 3 6 3H25.5462C25.8346 3 26.1089 3.12448 26.2988 3.3415L29.4527 6.94597C29.4842 6.98194 29.5182 7.01561 29.5545 7.04672L32.6508 9.70068C32.8724 9.89066 33 10.168 33 10.4599V39.8C33 40.3523 32.5523 40.8 32 40.8H6C5.44771 40.8 5 40.3523 5 39.8V4Z" fill="#FCFCFC"/>
</g>
<g filter="url(#filter1_d_69_2199)">
<path d="M26 10H33L26 3V10Z" fill="#F2F2F2"/>
</g>
<path d="M8 19L8.80199 20.5832C9.22123 21.4107 10.3755 21.4831 10.8947 20.7143L10.977 20.5925C11.4594 19.8783 12.5316 19.9455 12.9211 20.7143V20.7143C13.3105 21.4831 14.3827 21.5503 14.8651 20.8361L15.027 20.5964C15.494 19.905 16.5402 20.0018 16.8725 20.767V20.767C17.2408 21.6151 18.4435 21.6151 18.8117 20.767V20.767C19.144 20.0018 20.1902 19.905 20.6572 20.5964L21.0512 21.1797C21.5111 21.8606 22.4457 22.0207 23.106 21.5319L23.6546 21.1258C24.0156 20.8586 24.4522 20.7143 24.9015 20.7143C26.4175 20.7143 28.8137 20.7143 30 20.7143" stroke="#C5C5C5"/>
<path d="M8 24L8.80199 25.5832C9.22123 26.4107 10.3755 26.4831 10.8947 25.7143L10.977 25.5925C11.4594 24.8783 12.5316 24.9455 12.9211 25.7143V25.7143C13.3105 26.4831 14.3827 26.5503 14.8651 25.8361L15.027 25.5964C15.494 24.905 16.5402 25.0018 16.8725 25.767V25.767C17.2408 26.6151 18.4435 26.6151 18.8117 25.767V25.767C19.144 25.0018 20.1902 24.905 20.6572 25.5964L21.0512 26.1797C21.5111 26.8606 22.4457 27.0207 23.106 26.5319L23.6546 26.1258C24.0156 25.8586 24.4522 25.7143 24.9015 25.7143C26.4175 25.7143 28.8137 25.7143 30 25.7143" stroke="#C5C5C5"/>
<path d="M8 29L8.80199 30.5832C9.22123 31.4107 10.3755 31.4831 10.8947 30.7143L10.977 30.5925C11.4594 29.8783 12.5316 29.9455 12.9211 30.7143V30.7143C13.3105 31.4831 14.3827 31.5503 14.8651 30.8361L15.027 30.5964C15.494 29.905 16.5402 30.0018 16.8725 30.767V30.767C17.2408 31.6151 18.4435 31.6151 18.8117 30.767V30.767C19.144 30.0018 20.1902 29.905 20.6572 30.5964L21.0512 31.1797C21.5111 31.8606 22.4457 32.0207 23.106 31.5319L23.6546 31.1258C24.0156 30.8586 24.4522 30.7143 24.9015 30.7143C26.4175 30.7143 28.8137 30.7143 30 30.7143" stroke="#C5C5C5"/>
<path d="M8 34L8.80199 35.5832C9.22123 36.4107 10.3755 36.4831 10.8947 35.7143L10.977 35.5925C11.4594 34.8783 12.5316 34.9455 12.9211 35.7143V35.7143C13.3105 36.4831 14.3827 36.5503 14.8651 35.8361L15.027 35.5964C15.494 34.905 16.5402 35.0018 16.8725 35.767V35.767C17.2408 36.6151 18.4435 36.6151 18.8117 35.767V35.767C19.144 35.0018 20.1902 34.905 20.6572 35.5964L21.0512 36.1797C21.5111 36.8606 22.4457 37.0207 23.106 36.5319L23.6546 36.1258C24.0156 35.8586 24.4522 35.7143 24.9015 35.7143C26.4175 35.7143 28.8137 35.7143 30 35.7143" stroke="#C5C5C5"/>
<defs>
<filter id="filter0_d_69_2199" x="2.6375" y="0.6375" width="32.725" height="42.525" filterUnits="userSpaceOnUse" color-interpolation-filters="sRGB">
<feFlood flood-opacity="0" result="BackgroundImageFix"/>
<feColorMatrix in="SourceAlpha" type="matrix" values="0 0 0 0 0 0 0 0 0 0 0 0 0 0 0 0 0 0 127 0" result="hardAlpha"/>
<feOffset/>
<feGaussianBlur stdDeviation="1.18125"/>
<feComposite in2="hardAlpha" operator="out"/>
<feColorMatrix type="matrix" values="0 0 0 0 0 0 0 0 0 0 0 0 0 0 0 0 0 0 0.22 0"/>
<feBlend mode="normal" in2="BackgroundImageFix" result="effect1_dropShadow_69_2199"/>
<feBlend mode="normal" in="SourceGraphic" in2="effect1_dropShadow_69_2199" result="shape"/>
</filter>
<filter id="filter1_d_69_2199" x="24.8" y="1.8" width="9" height="9" filterUnits="userSpaceOnUse" color-interpolation-filters="sRGB">
<feFlood flood-opacity="0" result="BackgroundImageFix"/>
<feColorMatrix in="SourceAlpha" type="matrix" values="0 0 0 0 0 0 0 0 0 0 0 0 0 0 0 0 0 0 127 0" result="hardAlpha"/>
<feOffset dx="-0.2" dy="-0.2"/>
<feGaussianBlur stdDeviation="0.5"/>
<feComposite in2="hardAlpha" operator="out"/>
<feColorMatrix type="matrix" values="0 0 0 0 0 0 0 0 0 0 0 0 0 0 0 0 0 0 0.25 0"/>
<feBlend mode="normal" in2="BackgroundImageFix" result="effect1_dropShadow_69_2199"/>
<feBlend mode="normal" in="SourceGraphic" in2="effect1_dropShadow_69_2199" result="shape"/>
</filter>
</defs>
</svg>
