<?xml version="1.0" encoding="UTF-8"?>
<svg id="Layer_1" xmlns="http://www.w3.org/2000/svg" version="1.1" viewBox="0 0 37 44">
  <!-- Generator: Adobe Illustrator 29.6.1, SVG Export Plug-In . SVG Version: 2.1.1 Build 9)  -->
  <defs>
    <style>
      .st0 {
        fill: none;
        stroke: #c5c5c5;
      }

      .st1 {
        fill: #f2f2f2;
      }

      .st2 {
        fill: #fcfcfc;
      }
    </style>
  </defs>
  <path class="st2" d="M5,4c0-.6.4-1,1-1h19.5c.3,0,.6.1.8.3l3.2,3.6s0,0,.1.1l3.1,2.7c.2.2.3.5.3.8v29.3c0,.6-.4,1-1,1H6c-.6,0-1-.4-1-1V4Z"/>
  <path class="st1" d="M26,10h7l-7-7v7Z"/>
  <path class="st0" d="M8,19l.8,1.6c.4.8,1.6.9,2.1.1h0c.5-.8,1.6-.8,1.9,0h0c.4.8,1.5.8,1.9.1l.2-.2c.5-.7,1.5-.6,1.8.2h0c.4.8,1.6.8,1.9,0h0c.3-.8,1.4-.9,1.8-.2l.4.6c.5.7,1.4.8,2.1.4l.5-.4c.4-.3.8-.4,1.2-.4h5.1"/>
  <path class="st0" d="M8,24l.8,1.6c.4.8,1.6.9,2.1.1h0c.5-.8,1.6-.8,1.9,0h0c.4.8,1.5.8,1.9.1l.2-.2c.5-.7,1.5-.6,1.8.2h0c.4.8,1.6.8,1.9,0h0c.3-.8,1.4-.9,1.8-.2l.4.6c.5.7,1.4.8,2.1.4l.5-.4c.4-.3.8-.4,1.2-.4h5.1"/>
  <path class="st0" d="M8,29l.8,1.6c.4.8,1.6.9,2.1.1h0c.5-.8,1.6-.8,1.9,0h0c.4.8,1.5.8,1.9.1l.2-.2c.5-.7,1.5-.6,1.8.2h0c.4.8,1.6.8,1.9,0h0c.3-.8,1.4-.9,1.8-.2l.4.6c.5.7,1.4.8,2.1.4l.5-.4c.4-.3.8-.4,1.2-.4h5.1"/>
  <path class="st0" d="M8,34l.8,1.6c.4.8,1.6.9,2.1.1h0c.5-.8,1.6-.8,1.9,0h0c.4.8,1.5.8,1.9.1l.2-.2c.5-.7,1.5-.6,1.8.2h0c.4.8,1.6.8,1.9,0h0c.3-.8,1.4-.9,1.8-.2l.4.6c.5.7,1.4.8,2.1.4l.5-.4c.4-.3.8-.4,1.2-.4h5.1"/>
</svg>